# xmcd
#
# Track frame offsets: 
#        150
#        17961
#        38644
#        55863
#        72736
#
# Disc length: 1243 seconds
#
# Revision: 0
# Processed by: cddbd v1.5.2PL0 Copyright (c) Steve Scherf et al.
# Submitted via: ExactAudioCopy v0.99pb5
#
DISCID=4204d905
DTITLE=Groove Foundation - (Maxi) Aquarius
DYEAR=1998
DGENRE=
TTITLE0=Aquarius (Radio)
TTITLE1=Aquarius (Extended)
TTITLE2=Aquarius (Classic)
TTITLE3=Aquarius (Instrumental)
TTITLE4=Children of Africa
EXTD=
EXTT0=
EXTT1=
EXTT2=
EXTT3=
EXTT4=
PLAYORDER=
